<?xml version="1.0" encoding="utf-8"?>
<!-- Generator: Adobe Illustrator 23.1.1, SVG Export Plug-In . SVG Version: 6.00 Build 0)  -->
<svg version="1.1" xmlns="http://www.w3.org/2000/svg" xmlns:xlink="http://www.w3.org/1999/xlink" x="0px" y="0px"
	 viewBox="0 0 205 50" style="enable-background:new 0 0 205 50;" xml:space="preserve">
<style type="text/css">
	.st0{fill:#D2D2F1;}
	.st1{fill:#A92AEB;}
	.st2{fill:#4E4C7A;}
	.st3{fill:#688CE0;}
	.st4{fill:#808080;}
	.st5{fill:#DFDFDF;}
</style>
<g id="icon__x2B__logo">
	<g>
		<path class="st0" d="M68.8,23.6h12.5c0,1.3-0.1,2.5-0.2,3.5c-0.1,1.1-0.3,2-0.6,2.9c-0.5,1.3-1.1,2.4-1.8,3.4
			c-0.8,1-1.7,1.8-2.7,2.4c-1,0.7-2.2,1.2-3.4,1.5c-1.2,0.3-2.6,0.5-3.9,0.5c-1.9,0-3.6-0.3-5.2-0.9c-1.6-0.6-2.9-1.5-4-2.6
			s-2-2.5-2.6-4.1S56,26.9,56,25s0.3-3.6,0.9-5.2c0.6-1.6,1.5-2.9,2.6-4s2.5-2,4.1-2.6c1.6-0.6,3.4-0.9,5.3-0.9
			c2.5,0,4.8,0.5,6.7,1.6c1.9,1.1,3.4,2.8,4.5,5.1l-6,2.5c-0.6-1.3-1.3-2.3-2.2-2.9c-0.9-0.6-1.9-0.9-3-0.9c-0.9,0-1.8,0.2-2.6,0.5
			c-0.8,0.4-1.4,0.9-2,1.5c-0.5,0.7-1,1.4-1.3,2.4c-0.3,0.9-0.5,2-0.5,3.1c0,1,0.1,2,0.4,2.9c0.3,0.9,0.7,1.6,1.2,2.3
			c0.5,0.6,1.2,1.1,2,1.5s1.7,0.5,2.8,0.5c0.6,0,1.2-0.1,1.8-0.2c0.6-0.1,1.1-0.4,1.6-0.7c0.5-0.3,0.8-0.7,1.1-1.2
			c0.3-0.5,0.5-1.1,0.6-1.8h-5.2C68.8,28.5,68.8,23.6,68.8,23.6z"/>
		<path class="st0" d="M97.5,20.6h5.9v16.5h-5.9v-1.8c-1.2,1.6-2.9,2.3-5.1,2.3c-1.2,0-2.3-0.2-3.3-0.7c-1-0.4-1.9-1.1-2.6-1.8
			c-0.8-0.8-1.3-1.7-1.8-2.8c-0.4-1.1-0.6-2.2-0.6-3.5c0-1.2,0.2-2.3,0.6-3.4s1-2,1.7-2.8s1.6-1.4,2.6-1.9s2.1-0.7,3.3-0.7
			c2.1,0,3.8,0.7,5.1,2.2v-1.6H97.5z M90.2,28.8c0,0.5,0.1,1,0.3,1.5c0.2,0.5,0.5,0.9,0.8,1.2c0.3,0.3,0.7,0.6,1.2,0.8
			s1,0.3,1.5,0.3s1-0.1,1.5-0.3s0.9-0.5,1.2-0.8c0.3-0.3,0.6-0.7,0.8-1.2c0.2-0.5,0.3-0.9,0.3-1.4s-0.1-1-0.3-1.5
			c-0.2-0.5-0.5-0.9-0.8-1.2c-0.3-0.3-0.7-0.6-1.2-0.8c-0.5-0.2-0.9-0.3-1.5-0.3c-0.5,0-1,0.1-1.5,0.3c-0.5,0.2-0.9,0.5-1.2,0.8
			c-0.3,0.3-0.6,0.7-0.8,1.2C90.3,27.8,90.2,28.3,90.2,28.8z"/>
		<path class="st0" d="M113.8,25.5v11.6H108V25.5h-1.9v-4.9h1.9v-5h5.8v5h3.3v4.9H113.8z"/>
		<path class="st0" d="M133.3,19.1c-0.7-0.6-1.4-1-2.1-1.2c-0.7-0.3-1.4-0.4-2-0.4c-0.8,0-1.5,0.2-2,0.6s-0.8,0.9-0.8,1.5
			c0,0.4,0.1,0.8,0.4,1.1c0.3,0.3,0.6,0.5,1,0.7s0.9,0.4,1.4,0.5c0.5,0.2,1,0.3,1.6,0.5c2.1,0.7,3.6,1.6,4.5,2.8s1.4,2.6,1.4,4.5
			c0,1.2-0.2,2.4-0.6,3.4c-0.4,1-1,1.9-1.8,2.6c-0.8,0.7-1.8,1.3-3,1.7s-2.5,0.6-4,0.6c-3.1,0-5.9-0.9-8.5-2.7l2.7-5.1
			c0.9,0.8,1.9,1.5,2.8,1.9c0.9,0.4,1.8,0.6,2.7,0.6c1,0,1.8-0.2,2.3-0.7s0.8-1,0.8-1.6c0-0.4-0.1-0.7-0.2-0.9
			c-0.1-0.3-0.3-0.5-0.6-0.7s-0.7-0.4-1.2-0.6s-1.1-0.4-1.8-0.6c-0.8-0.3-1.6-0.5-2.4-0.9c-0.8-0.3-1.5-0.7-2.1-1.2
			s-1.1-1.2-1.5-1.9c-0.4-0.8-0.6-1.8-0.6-3s0.2-2.3,0.6-3.3s1-1.8,1.7-2.5s1.6-1.2,2.6-1.6c1-0.4,2.2-0.6,3.5-0.6
			c1.2,0,2.5,0.2,3.8,0.5s2.6,0.8,3.8,1.5L133.3,19.1z"/>
		<path class="st0" d="M147,25.5v11.6h-5.8V25.5h-1.9v-4.9h1.9v-5h5.8v5h3.3v4.9H147z"/>
		<path class="st0" d="M165.6,20.6h5.9v16.5h-5.9v-1.8c-1.2,1.6-2.9,2.3-5.1,2.3c-1.2,0-2.3-0.2-3.3-0.7c-1-0.4-1.9-1.1-2.6-1.8
			c-0.8-0.8-1.3-1.7-1.8-2.8c-0.4-1.1-0.6-2.2-0.6-3.5c0-1.2,0.2-2.3,0.6-3.4c0.4-1.1,1-2,1.7-2.8s1.6-1.4,2.6-1.9s2.1-0.7,3.3-0.7
			c2.1,0,3.8,0.7,5.1,2.2v-1.6H165.6z M158.3,28.8c0,0.5,0.1,1,0.3,1.5s0.5,0.9,0.8,1.2c0.3,0.3,0.7,0.6,1.2,0.8s1,0.3,1.5,0.3
			s1-0.1,1.5-0.3s0.9-0.5,1.2-0.8s0.6-0.7,0.8-1.2s0.3-0.9,0.3-1.4s-0.1-1-0.3-1.5s-0.5-0.9-0.8-1.2c-0.3-0.3-0.7-0.6-1.2-0.8
			c-0.5-0.2-0.9-0.3-1.5-0.3c-0.5,0-1,0.1-1.5,0.3c-0.5,0.2-0.9,0.5-1.2,0.8s-0.6,0.7-0.8,1.2C158.4,27.8,158.3,28.3,158.3,28.8z"/>
		<path class="st0" d="M181.9,25.5v11.6h-5.8V25.5h-1.9v-4.9h1.9v-5h5.8v5h3.3v4.9H181.9z"/>
		<path class="st0" d="M198.5,24.9c-1.1-0.6-2.1-0.8-3.2-0.8c-0.5,0-1,0.1-1.3,0.3c-0.3,0.2-0.5,0.5-0.5,0.9c0,0.2,0,0.3,0.1,0.5
			c0.1,0.1,0.2,0.2,0.4,0.3c0.2,0.1,0.5,0.2,0.8,0.3c0.4,0.1,0.8,0.2,1.4,0.3c1.6,0.3,2.8,0.9,3.6,1.7c0.8,0.8,1.2,1.9,1.2,3.2
			c0,1-0.2,1.8-0.6,2.6c-0.4,0.8-0.9,1.4-1.6,1.9c-0.7,0.5-1.5,0.9-2.5,1.2s-2,0.4-3.2,0.4c-2.2,0-4.4-0.6-6.6-1.9l2.1-4.1
			c1.6,1.1,3.2,1.7,4.6,1.7c0.5,0,1-0.1,1.3-0.4c0.3-0.2,0.5-0.5,0.5-0.9c0-0.2,0-0.4-0.1-0.5s-0.2-0.3-0.3-0.4
			c-0.2-0.1-0.4-0.2-0.8-0.3c-0.3-0.1-0.8-0.2-1.3-0.3c-1.8-0.4-3.1-0.9-3.8-1.6s-1.1-1.7-1.1-3c0-0.9,0.2-1.8,0.5-2.5
			s0.8-1.4,1.5-1.9c0.6-0.5,1.4-0.9,2.3-1.2c0.9-0.3,1.9-0.4,3-0.4c1.8,0,3.6,0.4,5.3,1.1L198.5,24.9z"/>
	</g>
	<path class="st0" d="M35.6,23.9h-11v4.4h5.8c-1,3-3.1,5-7.3,5c-4.6,0-7.9-3.8-7.9-8.3s3.1-8.5,7.7-8.5c2.5,0,5,1.3,6.6,3.3l3.6-2.4
		c-2.4-3.3-6.2-5.2-10.3-5.2c-7,0-12.6,5.7-12.6,12.7S15.7,37.7,23,37.7S35.6,32,35.6,24.9C35.6,24.5,35.6,23.9,35.6,23.9z"/>
	<path class="st1" d="M5,25c0-9.9,8.1-18,18-18l0,0V2C17.2,2,12.3,3.9,7.9,7.6C-1.7,16-2.7,30.5,5.6,40.1l3.8-3.3
		C6.7,33.6,5,29.5,5,25z"/>
	<path class="st2" d="M23,43c-5.4,0-10.3-2.4-13.6-6.2l-3.8,3.3c0.8,0.9,1.7,1.8,2.6,2.5c9.7,8.2,24.2,6.9,32.4-2.8l-3.8-3.2
		C33.5,40.5,28.5,43,23,43z"/>
	<path class="st3" d="M23,2v5c9.9,0,18,8.1,18,18c0,4.4-1.6,8.4-4.2,11.6l3.8,3.2c3.7-4.4,5.4-9,5.4-14.8C46,12.3,35.7,2,23,2z"/>
	<path class="st0" d="M354.4,22.7h-23.5v9.4h12.5c-2,6.3-6.7,10.7-15.5,10.7c-9.7,0-16.8-8-16.8-17.8s6.6-18,16.3-18
		c5.3,0,10.8,2.7,14.2,7l7.7-5.1c-5.1-7-13.1-11.1-21.8-11.1c-14.8,0-26.8,12.1-26.8,27.2s11.4,27.2,26.8,27.2S354.2,40,354.2,25
		C354.4,24,354.4,22.7,354.4,22.7z"/>
	<path class="st1" d="M289.1,25c0-21.2,17.2-38.3,38.3-38.3l0,0V-24c-12.3,0-22.9,4-32.1,12c-20.4,17.8-22.6,48.7-4.8,69.1l8.1-7
		C292.7,43.4,289.1,34.6,289.1,25z"/>
	<path class="st2" d="M327.5,63.3c-11.6,0-21.9-5.1-28.9-13.2l-8.1,7c1.6,1.8,3.6,3.8,5.5,5.4c20.7,17.4,51.6,14.7,69-6l-8.2-6.9
		C349.8,58,339.3,63.3,327.5,63.3z"/>
	<path class="st3" d="M327.5-24v10.7c21.2,0,38.3,17.2,38.3,38.3c0,9.4-3.4,18-9,24.6l8.2,6.9c7.9-9.4,11.5-19.2,11.5-31.5
		C376.5-2.1,354.5-24,327.5-24z"/>
</g>
<g id="paulie-dev_icon__x2B__logo">
	<path class="st4" d="M402.5,0c0-9.9,8.1-18,18-18l0,0v-5c-5.8,0-10.7,1.9-15.1,5.6c-9.6,8.4-10.6,22.9-2.3,32.5l3.8-3.3
		C404.2,8.6,402.5,4.5,402.5,0z"/>
	<path class="st5" d="M420.5,18c-5.4,0-10.3-2.4-13.6-6.2l-3.8,3.3c0.8,0.9,1.7,1.8,2.6,2.5c9.7,8.2,24.2,6.9,32.4-2.8l-3.8-3.2
		C431,15.5,426,18,420.5,18z"/>
	<path d="M420.5-23v5c9.9,0,18,8.1,18,18c0,4.4-1.6,8.4-4.2,11.6l3.8,3.2c3.7-4.4,5.4-9,5.4-14.8C443.5-12.7,433.2-23,420.5-23z"/>
	<circle class="st4" cx="420.6" cy="-0.1" r="12.9"/>
	<text transform="matrix(1 0 0 1 455.022 13)" style="font-family:'Futura-Bold'; font-size:36px;">Paul</text>
</g>
</svg>
